<?xml version="1.0" standalone="no"?>
<!DOCTYPE svg PUBLIC "-//W3C//DTD SVG 20010904//EN"
 "http://www.w3.org/TR/2001/REC-SVG-20010904/DTD/svg10.dtd">
<svg version="1.0" xmlns="http://www.w3.org/2000/svg"
 width="400.000000pt" height="400.000000pt" viewBox="0 0 400.000000 400.000000"
 preserveAspectRatio="xMidYMid meet">
<metadata>
Created by potrace 1.14, written by Peter Selinger 2001-2017
</metadata>
<g transform="translate(0.000000,400.000000) scale(0.100000,-0.100000)"
fill="#000000" stroke="none">
<path d="M0 2000 l0 -2000 2000 0 2000 0 0 2000 0 2000 -2000 0 -2000 0 0
-2000z m2125 1341 c55 -24 121 -85 146 -132 10 -21 213 -553 450 -1181 470
-1244 455 -1198 411 -1285 -27 -52 -73 -88 -134 -103 -91 -23 -194 30 -232
120 -8 19 -62 166 -121 325 -58 160 -113 300 -121 313 l-14 22 -508 0 c-279 0
-513 -4 -520 -9 -7 -4 -68 -158 -136 -342 -110 -301 -127 -338 -162 -375 -79
-81 -198 -81 -279 0 -46 46 -71 117 -60 168 4 16 204 551 445 1188 285 754
448 1171 466 1195 83 109 244 151 369 96z"/>
<path d="M1972 2858 c-5 -7 -28 -75 -51 -150 -22 -76 -101 -307 -176 -514
-105 -296 -132 -381 -124 -395 9 -18 26 -19 381 -17 329 3 372 5 381 19 8 12
-24 111 -131 410 -77 217 -157 448 -177 514 -41 130 -49 145 -75 145 -10 0
-22 -6 -28 -12z"/>
</g>
</svg>
